# xmcd
# 
# Track frame offsets:
#     150
#     20851
#     39930
#     56952
#     84434
#     104283
#     128463
#     148035
#     165992
#     194426
#     208083
#     249091
#     281852
#     298619
#     311166
#     335686
# 
# Disc length: 4666
# 
# Revision: 4
# Processed by: cddbd v1.5.2PL0 Copyright (c) Steve Scherf et al.
# Submitted via: fre:ac v1.0.31
# 
DISCID=ef123810
DTITLE=Various Artist - Pieprz i Wanilia vol.3 [CD 1)
DYEAR=2006
DGENRE=Lounge
TTITLE0=Paula Lima - Quero Ver Voce No Baile
TTITLE1=Angelique Kidjo - Black Ivory Soul
TTITLE2=Mark Murphy - Sconsolato
TTITLE3=Natacha Atlas - Leysh Nat Arak
TTITLE4=Djelem - Codru
TTITLE5=Stereo MC's - Fever (Steve Hillage Mix)
TTITLE6=El Lebrijano and Orchestra Andalusi de Tanger - Las Mil Y Una Noches
TTITLE7=Nitin Sawhney - Mausam
TTITLE8=Lata Mangeshkar - Na Main Dharmi Na Hi Adharmi
TTITLE9=Lokua Kanza and Deep Forest - Ave Maria
TTITLE10=Frederico Galliano - Bien Sofa de!
TTITLE11=Chieko Kinbara and Liliana Chachain - A Espera
TTITLE12=Simply Red - Something Got Me Started (New Version)
TTITLE13=Macy Gray - Oblivion
TTITLE14=Senor Coconut y Su Conjunto - Showroom Dummies
TTITLE15=Marianne Faithfull - The Wedding
EXTD=YEAR: 2006
EXTT0=
EXTT1=
EXTT2=
EXTT3=
EXTT4=
EXTT5=
EXTT6=
EXTT7=
EXTT8=
EXTT9=
EXTT10=
EXTT11=
EXTT12=
EXTT13=
EXTT14=
EXTT15=
PLAYORDER=
